<mxfile host="app.diagrams.net" modified="2023-09-13T03:48:52.553Z" agent="Mozilla/5.0 (Windows NT 10.0; Win64; x64) AppleWebKit/537.36 (KHTML, like Gecko) Chrome/116.0.0.0 Safari/537.36 Edg/116.0.1938.76" version="21.7.4" etag="CqIdApVrGkPyOG6eyAcq" type="github">
  <diagram name="PÃ¡gina-1" id="GPJ-g9dYDtLSFrBp1T71">
    <mxGraphModel>
      <root>
        <mxCell id="0" />
        <mxCell id="1" parent="0" />
      </root>
    </mxGraphModel>
  </diagram>
</mxfile>
